<?xml version="1.0" encoding="utf-8"?>
<!-- Generator: Adobe Illustrator 19.2.1, SVG Export Plug-In . SVG Version: 6.00 Build 0)  -->
<svg version="1.1" id="Layer_1" xmlns="http://www.w3.org/2000/svg" xmlns:xlink="http://www.w3.org/1999/xlink" x="0px" y="0px"
	 viewBox="0 0 317.7 982.8" style="enable-background:new 0 0 317.7 982.8;" xml:space="preserve">
<style type="text/css">
	.st0{fill:#FBF7EA;}
</style>
<g>
	<path class="st0" d="M9.4,823.5c8,4.6,19.3,3.9,27.7,0.9c10.3-3.7,18.8-11.4,25.4-20.1c15.2-20.2,24.8-43.9,37.1-65.8
		c12.5-22.3,27.7-43.1,45.2-61.9c13.1-14,25.3-12.9,43.2-11c38.8,4.1,77.8,8.3,116.6,12.8c4.4,0.5,8.8,1,13.2,1.5V0H0v808.5
		C2,814.2,4.2,820.5,9.4,823.5z"/>
	<path class="st0" d="M275.3,731.9c-17.4,3.2-29.9,13.4-39.3,28.1c-12.3,19.3-20.1,42.9-25.5,65.1c-3.2,13.2-4.6,26.8-4.2,40.3
		c0.2,6.8,0.9,13.5,2.1,20.2c0.4,2,2.7,18.4,4.5,18.7c-47.9-7.3-95.8-16.4-142.4-29.4C39,866,15.1,857.9,0,852.4v130.4h317.7V731.6
		C303.4,730,289,729.4,275.3,731.9z"/>
</g>
</svg>
